<svg width="42" height="42" viewBox="0 0 42 42" fill="none" xmlns="http://www.w3.org/2000/svg">
<g clip-path="url(#clip0_729_282)">
<path d="M18.2117 9.73013L7 21.0001L18.2117 32.2701C18.3129 32.4031 18.4416 32.5128 18.5889 32.5917C18.7362 32.6706 18.8988 32.717 19.0656 32.7276C19.2324 32.7383 19.3995 32.7129 19.5556 32.6534C19.7118 32.5938 19.8533 32.5014 19.9707 32.3824C20.088 32.2633 20.1784 32.1205 20.2357 31.9635C20.2931 31.8065 20.316 31.639 20.303 31.4724C20.2899 31.3058 20.2413 31.1439 20.1602 30.9977C20.0792 30.8515 19.9677 30.7245 19.8333 30.6251L11.445 22.1668H33.7633C34.0728 22.1668 34.3695 22.0439 34.5883 21.8251C34.8071 21.6063 34.93 21.3095 34.93 21.0001C34.93 20.6907 34.8071 20.394 34.5883 20.1752C34.3695 19.9564 34.0728 19.8335 33.7633 19.8335H11.445L19.8333 11.3751C20.0515 11.1554 20.1734 10.8581 20.1723 10.5485C20.1712 10.2389 20.0472 9.94244 19.8275 9.72429C19.6078 9.50615 19.3105 9.38422 19.0009 9.38531C18.6913 9.38641 18.3948 9.51044 18.1767 9.73013H18.2117Z" fill="black"/>
</g>
<defs>
<clipPath id="clip0_729_282">
<rect y="42" width="42" height="42" rx="21" transform="rotate(-90 0 42)" fill="white"/>
</clipPath>
</defs>
</svg>
