<svg width="42" height="42" viewBox="0 0 42 42" fill="none" xmlns="http://www.w3.org/2000/svg">
<path d="M35.4375 4.26562H6.5625C5.95333 4.26562 5.36911 4.50762 4.93836 4.93836C4.50762 5.36911 4.26563 5.95333 4.26562 6.5625V35.4375C4.26562 36.0467 4.50762 36.6309 4.93836 37.0616C5.36911 37.4924 5.95333 37.7344 6.5625 37.7344H35.4375C36.0467 37.7344 36.6309 37.4924 37.0616 37.0616C37.4924 36.6309 37.7344 36.0467 37.7344 35.4375V6.5625C37.7344 5.95333 37.4924 5.36911 37.0616 4.93836C36.6309 4.50762 36.0467 4.26562 35.4375 4.26562ZM35.7656 35.4375C35.7656 35.5245 35.7311 35.608 35.6695 35.6695C35.608 35.7311 35.5245 35.7656 35.4375 35.7656H6.5625C6.47548 35.7656 6.39202 35.7311 6.33048 35.6695C6.26894 35.608 6.23438 35.5245 6.23438 35.4375V6.5625C6.23438 6.47548 6.26894 6.39202 6.33048 6.33048C6.39202 6.26894 6.47548 6.23438 6.5625 6.23438H35.4375C35.5245 6.23438 35.608 6.26894 35.6695 6.33048C35.7311 6.39202 35.7656 6.47548 35.7656 6.5625V35.4375ZM15.4219 18.375V28.875C15.4219 29.1361 15.3182 29.3865 15.1336 29.5711C14.949 29.7557 14.6986 29.8594 14.4375 29.8594C14.1764 29.8594 13.926 29.7557 13.7414 29.5711C13.5568 29.3865 13.4531 29.1361 13.4531 28.875V18.375C13.4531 18.1139 13.5568 17.8635 13.7414 17.6789C13.926 17.4943 14.1764 17.3906 14.4375 17.3906C14.6986 17.3906 14.949 17.4943 15.1336 17.6789C15.3182 17.8635 15.4219 18.1139 15.4219 18.375ZM29.8594 22.9688V28.875C29.8594 29.1361 29.7557 29.3865 29.5711 29.5711C29.3865 29.7557 29.1361 29.8594 28.875 29.8594C28.6139 29.8594 28.3635 29.7557 28.1789 29.5711C27.9943 29.3865 27.8906 29.1361 27.8906 28.875V22.9688C27.8906 22.0115 27.5104 21.0934 26.8335 20.4165C26.1566 19.7396 25.2385 19.3594 24.2812 19.3594C23.324 19.3594 22.4059 19.7396 21.729 20.4165C21.0521 21.0934 20.6719 22.0115 20.6719 22.9688V28.875C20.6719 29.1361 20.5682 29.3865 20.3836 29.5711C20.199 29.7557 19.9486 29.8594 19.6875 29.8594C19.4264 29.8594 19.176 29.7557 18.9914 29.5711C18.8068 29.3865 18.7031 29.1361 18.7031 28.875V18.375C18.7031 18.1139 18.8068 17.8635 18.9914 17.6789C19.176 17.4943 19.4264 17.3906 19.6875 17.3906C19.9486 17.3906 20.199 17.4943 20.3836 17.6789C20.5682 17.8635 20.6719 18.1139 20.6719 18.375V18.7212C21.4831 18.0327 22.4744 17.5906 23.5286 17.447C24.5829 17.3035 25.6563 17.4644 26.6221 17.911C27.5879 18.3575 28.4058 19.0709 28.9794 19.967C29.553 20.8632 29.8583 21.9047 29.8594 22.9688ZM16.0781 13.7812C16.0781 14.1057 15.9819 14.4229 15.8016 14.6927C15.6214 14.9625 15.3651 15.1728 15.0653 15.297C14.7656 15.4212 14.4357 15.4537 14.1174 15.3904C13.7992 15.327 13.5068 15.1708 13.2774 14.9413C13.048 14.7119 12.8917 14.4196 12.8284 14.1013C12.7651 13.7831 12.7976 13.4532 12.9218 13.1534C13.0459 12.8536 13.2562 12.5974 13.526 12.4171C13.7958 12.2368 14.113 12.1406 14.4375 12.1406C14.8726 12.1406 15.2899 12.3135 15.5976 12.6212C15.9053 12.9288 16.0781 13.3461 16.0781 13.7812Z" fill="black"/>
</svg>
